<?xml version="1.0" standalone="no"?>
<!DOCTYPE svg PUBLIC "-//W3C//DTD SVG 20010904//EN"
 "http://www.w3.org/TR/2001/REC-SVG-20010904/DTD/svg10.dtd">
<svg version="1.0" xmlns="http://www.w3.org/2000/svg"
 width="260.000000pt" height="260.000000pt" viewBox="0 0 260.000000 260.000000"
 preserveAspectRatio="xMidYMid meet">
<metadata>
Created by potrace 1.14, written by Peter Selinger 2001-2017
</metadata>
<g transform="translate(0.000000,260.000000) scale(0.100000,-0.100000)"
fill="#000000" stroke="none">
<path d="M811 2525 c1 -42 -1 -79 -5 -82 -3 -3 -111 -6 -241 -6 -129 0 -236
-2 -236 -6 -7 -35 -2 -144 6 -149 5 -4 42 -7 80 -7 l70 0 0 -80 0 -80 -80 0
-80 0 1 81 1 80 -81 -1 -81 -1 0 -324 0 -325 72 0 c40 -1 77 1 81 4 5 3 8 40
8 81 l-1 75 81 1 82 2 -1 -79 c0 -50 -4 -80 -11 -80 -6 -1 -42 -2 -81 -3 l-70
-1 0 -80 0 -80 243 -2 242 -1 1 41 c1 23 0 59 -1 80 -1 24 3 37 12 38 7 1 45
2 84 3 l70 1 0 -80 -1 -80 238 -2 c131 -1 241 -4 244 -7 4 -3 6 -76 5 -161 -1
-113 2 -155 11 -156 7 0 43 -1 82 -2 l70 -2 0 -72 c0 -39 4 -75 8 -79 10 -10
132 -14 146 -4 8 4 10 104 9 325 l-3 320 -80 0 -80 0 -1 -72 c-1 -40 -2 -77
-3 -82 0 -5 -36 -9 -80 -9 l-78 0 0 82 0 81 81 0 81 0 0 80 0 80 -242 3 -243
2 -1 -22 c0 -13 -2 -50 -2 -83 l-2 -60 -73 0 c-87 -1 -89 1 -87 97 l1 67 -240
1 c-132 0 -242 3 -244 5 -7 7 -5 306 2 312 7 8 306 7 313 0 3 -3 5 -40 4 -81
l-1 -76 165 0 164 0 0 63 c0 34 0 71 0 82 1 19 7 20 229 18 125 -1 234 0 242
3 13 3 16 20 16 82 l0 78 -81 -1 -80 0 -1 65 c-1 36 -2 72 -3 81 -1 15 -20 17
-156 16 -86 0 -158 3 -161 6 -3 3 -7 38 -7 79 l-2 73 -163 3 -162 2 1 -75z"/>
<path d="M1626 2431 c-5 -11 -1 -136 6 -146 4 -6 40 -11 82 -10 l75 0 -1 -60
c-1 -115 -20 -103 157 -103 86 1 158 -2 162 -5 3 -4 5 -114 5 -244 l-2 -238
84 0 83 0 -1 80 -1 80 30 2 c17 0 54 2 83 2 l52 1 -2 243 -3 242 -77 0 c-43 0
-79 3 -79 7 -1 5 -2 41 -3 81 l-1 72 -323 1 c-177 1 -324 -1 -326 -5z m644
-163 c5 -6 5 -122 1 -149 -1 -4 -36 -7 -80 -7 l-78 0 -1 75 c-1 42 1 79 3 82
5 9 149 8 155 -1z"/>
<path d="M2282 1615 c-4 -5 -7 -41 -7 -80 l0 -70 -78 0 c-70 0 -78 -2 -82 -20
-2 -11 -3 -121 -2 -245 l2 -224 81 -1 81 -1 -2 65 c-2 100 -3 99 73 99 37 0
73 1 80 1 9 1 12 57 12 244 l0 242 -76 0 c-41 1 -79 -4 -82 -10z"/>
<path d="M163 1220 l0 -80 31 -1 c17 -1 54 -1 81 -1 l50 1 0 -83 1 -82 -81 0
-80 1 -2 -60 c-4 -107 -4 -106 85 -103 l77 3 0 72 c0 39 4 75 8 80 5 4 41 8
80 8 l72 0 0 80 0 80 -73 2 c-41 1 -77 4 -80 8 -4 3 -7 39 -7 78 l0 72 -81 3
-82 3 1 -81z"/>
<path d="M650 1218 l0 -83 81 0 80 0 0 -142 c0 -79 -1 -152 -1 -163 0 -17 -7
-19 -80 -17 l-80 2 0 -82 0 -83 80 0 c90 0 83 -9 80 98 l-1 62 163 0 c90 1
273 2 408 3 l245 2 1 80 1 81 -83 -1 -83 0 1 65 c0 36 0 73 -1 82 -1 15 -17
17 -156 16 -85 -1 -158 2 -162 5 -3 4 -6 41 -6 82 l1 75 -82 0 -82 0 1 -76 c2
-93 8 -89 -127 -85 l-37 1 0 53 c1 28 1 64 0 80 l-1 27 -80 0 -80 0 0 -82z
m487 -158 c1 -90 4 -87 -97 -85 l-64 1 -2 64 c-3 100 -5 97 85 97 l78 1 0 -78z"/>
<path d="M4 1126 c-3 -7 -4 -44 -2 -82 l3 -69 78 -1 c71 0 77 1 78 20 0 12 1
48 2 81 l2 60 -78 2 c-56 1 -79 -2 -83 -11z"/>
<path d="M2282 966 c-3 -6 -7 -42 -7 -81 l-1 -70 -40 -2 c-21 -1 -58 -2 -82
-2 l-44 -1 2 -37 c1 -21 2 -57 1 -80 l-1 -43 -80 0 -80 0 0 -80 0 -80 -32 0
c-18 -1 -90 -1 -160 -1 -90 -1 -128 -4 -129 -12 -1 -7 -2 -43 -3 -81 l-1 -69
-78 -2 c-90 -1 -89 -2 -84 102 l3 62 -243 0 c-134 0 -244 -4 -244 -7 -1 -4 -2
-36 -3 -72 -1 -36 -4 -70 -8 -75 -5 -8 -92 -12 -145 -6 -9 1 -13 20 -12 59 1
31 1 67 0 79 l-1 22 -242 -2 -243 -2 0 -72 c0 -39 -4 -75 -8 -80 -5 -4 -77 -8
-160 -8 l-152 0 -3 -83 -3 -82 489 0 488 0 -1 83 -1 83 80 -1 81 -1 2 -69 c0
-39 1 -76 2 -83 1 -10 53 -12 244 -10 l242 3 0 73 c0 48 4 75 13 81 7 4 43 7
80 6 l67 -1 2 -60 c1 -32 2 -69 2 -82 l1 -22 243 2 242 3 0 80 0 80 83 0 82 0
-2 325 -3 325 -73 0 c-42 1 -76 -3 -80 -9z"/>
</g>
</svg>
